<?xml version="1.0" standalone="no"?>
<!DOCTYPE svg PUBLIC "-//W3C//DTD SVG 20010904//EN"
 "http://www.w3.org/TR/2001/REC-SVG-20010904/DTD/svg10.dtd">
<svg version="1.0" xmlns="http://www.w3.org/2000/svg"
 width="260.000000pt" height="260.000000pt" viewBox="0 0 260.000000 260.000000"
 preserveAspectRatio="xMidYMid meet">
<metadata>
Created by potrace 1.11, written by Peter Selinger 2001-2013
</metadata>
<g transform="translate(0.000000,260.000000) scale(0.100000,-0.100000)"
fill="#000000" stroke="none">
<path d="M0 1300 l0 -1300 1300 0 1300 0 0 1300 0 1300 -1300 0 -1300 0 0
-1300z m912 611 c158 -61 242 -220 208 -393 -26 -137 -106 -246 -347 -473 -81
-76 -149 -143 -151 -147 -2 -4 118 -8 267 -8 l271 0 0 -110 0 -110 -435 0
-435 0 0 93 0 92 101 100 c56 55 170 174 255 264 188 200 219 251 212 360 -3
57 -8 75 -28 96 -69 73 -231 49 -362 -56 l-37 -29 -70 83 c-39 45 -71 85 -71
89 0 10 119 97 163 120 121 61 339 75 459 29z m1238 -386 l0 -395 75 0 75 0 0
-105 0 -105 -75 0 -75 0 0 -125 0 -125 -130 0 -130 0 0 125 0 125 -265 0 -265
0 0 96 0 95 273 405 272 404 123 0 122 0 0 -395z"/>
<path d="M1873 1567 c-11 -23 -77 -129 -147 -235 -69 -106 -126 -195 -126
-197 0 -3 65 -5 143 -5 l144 0 6 237 c3 131 5 239 3 240 -1 1 -11 -17 -23 -40z"/>
</g>
</svg>
